<svg xmlns="http://www.w3.org/2000/svg" fill="url(#a)" stroke="url(#a)" stroke-linecap="round" stroke-linejoin="round" stroke-width=".5" viewBox="0 0 15 15">
  <defs>
    <linearGradient id="a" gradientTransform="rotate(45)">
      <stop offset="40%" stop-color="#3C1EBF"/>
      <stop offset="100%" stop-color="#DC151C"/>
    </linearGradient>
  </defs>
  <path d="M7.5.88a3.63 3.63 0 0 0-1 7.1 5 5 0 0 0-3 1.33c-.98.97-1.48 2.41-1.48 4.29a.47.47 0 1 0 .95 0c0-1.72.46-2.88 1.2-3.61.74-.74 1.86-1.12 3.33-1.12s2.58.39 3.33 1.12c.74.73 1.2 1.89 1.2 3.61a.47.47 0 1 0 .95 0c0-1.88-.5-3.32-1.49-4.29a4.99 4.99 0 0 0-2.98-1.33A3.63 3.63 0 0 0 7.5.88ZM4.83 4.5a2.67 2.67 0 1 1 5.34 0 2.67 2.67 0 0 1-5.34 0Z"/>
</svg>